# xmcd
#
# Track frame offsets:
#	150
#	19068
#	44516
#	65337
#	82796
#	106704
#	128863
#	143689
#	171536
#	192696
#	209017
#	226697
#	237497
#	258451
#
# Disc length: 4004 seconds
#
# Revision: 0
# Processed by: cddbd v1.4PL0 Copyright (c) Steve Scherf et al.
# Submitted via: dBpowerAMP V4.0
#
DISCID=c50fa20e
DTITLE=Jeff Chaz - Cookin In Old Grease
DYEAR=2003
DGENRE=Blues
TTITLE0=I Cant Get Lucky With You
TTITLE1=Instrument Of Pleasure
TTITLE2=I Smell Something Funky
TTITLE3=I've Got To Be Clean
TTITLE4=Humidity
TTITLE5=The Scent Of A Woman
TTITLE6=Don't Go Monkeyin Around
TTITLE7=Sweet, Sweet Love
TTITLE8=I Could've Been A Doctor
TTITLE9=You Knock Me To My Knees
TTITLE10=You Don't Believe A Word I Say
TTITLE11=I Give You All My Lovin
TTITLE12=Morning Coffee
TTITLE13=Cookin In Old Grease
EXTD=
EXTT0=
EXTT1=
EXTT2=
EXTT3=
EXTT4=
EXTT5=
EXTT6=
EXTT7=
EXTT8=
EXTT9=
EXTT10=
EXTT11=
EXTT12=
EXTT13=
PLAYORDER=
